<?xml version="1.0" standalone="no"?>
<!DOCTYPE svg PUBLIC "-//W3C//DTD SVG 20010904//EN"
 "http://www.w3.org/TR/2001/REC-SVG-20010904/DTD/svg10.dtd">
<svg version="1.0" xmlns="http://www.w3.org/2000/svg"
 width="1004.000000pt" height="406.000000pt" viewBox="0 0 1004.000000 406.000000"
 preserveAspectRatio="xMidYMid meet">

<g transform="translate(0.000000,406.000000) scale(0.100000,-0.100000)"
fill="#000000" stroke="none">
<path d="M1625 3349 c-704 -76 -1295 -141 -1313 -144 -58 -11 -57 -21 21 -389
l72 -336 28 0 c16 0 38 -5 49 -11 15 -8 19 -8 14 0 -4 6 0 11 9 11 9 0 13 -5
9 -11 -3 -6 8 -3 25 5 17 9 31 12 31 7 0 -5 9 -8 20 -6 11 2 20 -1 20 -7 0 -7
4 -7 13 1 10 7 17 7 24 0 8 -8 13 -8 17 0 4 6 14 11 22 11 9 0 12 -5 8 -11 -5
-8 -1 -8 14 0 26 14 68 14 94 0 15 -8 19 -8 14 0 -4 6 0 11 9 11 9 0 13 -5 9
-11 -3 -6 8 -3 25 5 17 9 31 12 31 7 0 -5 9 -8 20 -6 11 2 20 -1 20 -7 0 -7 4
-7 13 1 10 7 17 7 24 0 8 -8 13 -8 17 0 4 6 14 11 22 11 9 0 12 -5 8 -11 -5
-8 -1 -8 14 0 26 14 68 14 94 0 15 -8 19 -8 14 0 -4 6 0 11 9 11 9 0 13 -5 9
-11 -3 -6 8 -3 25 5 17 9 31 12 31 7 0 -5 9 -8 20 -6 11 2 20 -1 20 -7 0 -7 4
-7 13 1 10 7 17 7 24 0 8 -8 13 -8 17 0 4 6 14 11 22 11 9 0 12 -5 8 -11 -5
-8 -1 -8 14 0 11 6 33 11 47 11 14 0 36 -5 47 -11 15 -8 19 -8 14 0 -4 6 0 11
9 11 9 0 13 -5 9 -11 -3 -6 8 -3 25 5 17 9 31 12 31 7 0 -5 9 -8 20 -6 11 2
20 -1 20 -7 0 -7 4 -7 13 1 10 7 17 7 24 0 8 -8 13 -8 17 0 4 6 14 11 22 11 9
0 12 -5 8 -11 -5 -8 -1 -8 14 0 26 14 68 14 94 0 15 -8 19 -8 14 0 -4 6 0 11
9 11 9 0 13 -5 9 -11 -3 -6 8 -3 25 5 17 9 31 12 31 7 0 -5 9 -8 20 -6 11 2
20 -1 20 -7 0 -7 4 -7 13 1 10 7 17 7 24 0 8 -8 13 -8 17 0 4 6 14 11 22 11 9
0 12 -5 8 -11 -5 -8 -1 -8 14 0 26 14 68 14 94 0 15 -8 19 -8 14 0 -4 6 0 11
9 11 9 0 13 -5 9 -11 -3 -6 8 -3 25 5 17 9 31 12 31 7 0 -5 9 -8 20 -6 11 2
20 -1 20 -7 0 -7 5 -6 14 1 11 9 16 9 21 1 5 -9 10 -9 18 -1 14 14 40 14 31 0
-5 -8 -1 -8 14 0 26 14 68 14 94 0 15 -8 19 -8 14 0 -4 6 0 11 9 11 9 0 13 -5
9 -11 -3 -6 8 -3 25 5 17 9 31 12 31 7 0 -5 9 -8 20 -6 11 2 20 -1 20 -7 0 -7
4 -7 13 1 10 7 17 7 24 0 8 -8 13 -8 17 0 4 6 14 11 22 11 9 0 12 -5 8 -11 -5
-8 -1 -8 14 0 11 6 33 11 47 11 14 0 36 -5 47 -11 15 -8 19 -8 14 0 -4 6 0 11
9 11 9 0 13 -5 9 -11 -3 -6 8 -3 25 5 17 9 31 13 31 8 0 -18 32 -8 39 12 5 12
37 232 72 490 l63 468 -23 19 c-13 11 -31 19 -40 18 -9 -1 -592 -64 -1296
-140z"/>
<path d="M8230 2615 l0 -575 119 0 119 0 4 213 c4 233 12 269 64 304 42 27
116 24 147 -5 38 -36 47 -93 47 -311 l0 -201 120 0 120 0 0 253 c0 282 -7 324
-61 390 -51 61 -100 82 -199 82 -96 0 -135 -14 -191 -70 -19 -19 -37 -35 -41
-35 -5 0 -8 119 -8 265 l0 265 -120 0 -120 0 0 -575z"/>
<path d="M4025 3110 c-93 -9 -167 -32 -240 -75 -112 -67 -181 -155 -223 -284
-36 -110 -36 -273 0 -383 29 -87 96 -189 156 -237 107 -84 261 -128 412 -118
151 11 247 54 340 154 93 99 132 197 146 372 l7 81 -267 0 -266 0 0 -105 0
-105 110 0 c61 0 110 -4 110 -9 0 -24 -26 -79 -49 -105 -57 -62 -189 -88 -274
-53 -56 24 -112 82 -143 149 -26 57 -29 73 -29 168 0 95 3 110 29 163 48 100
122 156 216 165 75 7 129 -14 185 -72 28 -28 55 -60 61 -70 10 -19 15 -18 125
28 63 26 117 51 122 55 12 12 -65 122 -117 168 -102 90 -239 127 -411 113z"/>
<path d="M7090 2855 l0 -105 -45 0 -45 0 0 -99 0 -100 43 -3 42 -3 3 -252 2
-253 120 0 120 0 0 255 0 255 70 0 70 0 0 100 0 100 -70 0 -70 0 0 105 0 105
-120 0 -120 0 0 -105z"/>
<path d="M5127 2756 c-41 -15 -56 -25 -104 -70 l-33 -30 0 47 0 47 -120 0
-120 0 0 -355 0 -355 120 0 120 0 0 208 c0 221 7 270 45 308 29 29 98 33 134
8 45 -32 51 -67 51 -304 l0 -220 125 0 125 0 0 214 c0 128 4 226 11 243 25 66
90 98 150 73 58 -24 64 -50 67 -302 l3 -228 120 0 120 0 -3 288 c-3 285 -3
287 -28 332 -14 24 -45 58 -68 75 -41 28 -50 30 -130 30 -78 0 -93 -3 -141
-30 -30 -16 -65 -44 -79 -61 l-25 -32 -48 48 c-30 30 -65 54 -95 64 -57 19
-145 20 -197 2z"/>
<path d="M6315 2757 c-93 -31 -169 -101 -214 -197 -23 -49 -26 -67 -26 -165 0
-101 2 -115 29 -169 97 -198 352 -270 496 -139 l40 35 0 -41 0 -41 125 0 125
0 0 355 0 355 -125 0 -125 0 0 -37 0 -36 -22 20 c-13 11 -43 31 -68 44 -55 27
-175 36 -235 16z m262 -223 c53 -40 68 -71 68 -139 0 -69 -15 -99 -69 -139
-39 -30 -143 -30 -183 0 -48 36 -73 82 -73 136 0 72 38 131 100 157 38 16 127
7 157 -15z"/>
<path d="M7787 2756 c-176 -51 -288 -211 -275 -394 12 -165 126 -292 297 -332
60 -14 154 -8 216 13 l40 14 3 102 3 102 -40 -21 c-76 -38 -173 -21 -224 39
-72 86 -54 204 42 268 44 30 121 31 176 3 22 -11 41 -20 42 -20 2 0 3 45 3
101 l0 100 -37 16 c-50 21 -185 26 -246 9z"/>
<path d="M500 2025 c0 -33 121 -579 131 -592 9 -10 59 -13 230 -13 169 0 219
-3 219 -12 0 -7 -11 -56 -25 -108 -35 -137 -38 -130 45 -127 42 1 70 -2 70 -8
0 -6 3 -5 8 1 4 6 14 10 22 9 8 -2 27 -5 42 -8 15 -3 30 -2 33 3 3 6 16 5 30
0 14 -5 25 -6 25 -1 0 5 9 7 20 4 16 -4 99 53 340 235 l318 241 357 3 c323 3
358 5 369 20 11 16 56 291 56 346 l0 22 -1145 0 c-994 0 -1145 -2 -1145 -15z"/>
<path d="M3663 1569 c-50 -15 -109 -77 -123 -128 -22 -83 8 -159 81 -208 36
-24 53 -28 108 -28 43 1 78 7 99 18 31 17 32 19 32 87 0 40 -4 70 -10 70 -6 0
-10 -27 -10 -60 0 -56 -2 -60 -30 -75 -42 -22 -128 -19 -168 5 -96 59 -104
199 -15 267 44 34 122 42 176 19 46 -19 51 -20 54 -9 5 14 -67 44 -116 48 -25
3 -61 0 -78 -6z"/>
<path d="M4018 1407 c-96 -214 -94 -207 -75 -207 8 0 23 22 35 50 l21 50 111
0 111 0 21 -50 c11 -27 27 -50 34 -50 8 0 14 3 14 8 0 4 -37 89 -82 190 -56
124 -87 182 -97 182 -11 0 -41 -55 -93 -173z m140 36 c23 -54 42 -101 42 -105
0 -5 -40 -8 -90 -8 -49 0 -90 3 -90 8 0 12 84 202 90 202 3 0 25 -44 48 -97z"/>
<path d="M4370 1390 c0 -162 2 -190 15 -190 13 0 15 25 15 168 l0 167 77 -147
c43 -82 80 -148 83 -148 4 0 41 66 83 148 l77 147 0 -167 c0 -143 2 -168 15
-168 13 0 15 28 15 190 0 181 -1 190 -19 190 -15 0 -37 -33 -93 -145 -65 -129
-74 -143 -86 -128 -7 10 -43 75 -78 146 -50 96 -70 127 -85 127 -18 0 -19 -9
-19 -190z"/>
<path d="M4880 1390 l0 -190 125 0 c104 0 125 2 125 15 0 12 -19 15 -110 15
l-110 0 0 75 0 75 95 0 c78 0 95 3 95 15 0 12 -17 15 -95 15 l-95 0 0 70 0 70
110 0 c91 0 110 3 110 15 0 13 -21 15 -125 15 l-125 0 0 -190z"/>
<path d="M5230 1392 c0 -161 2 -192 15 -192 10 0 15 16 17 63 l3 62 66 3 66 3
43 -66 c23 -36 49 -65 56 -65 20 0 18 6 -28 71 -22 33 -39 60 -37 62 2 1 16 9
31 16 26 13 58 73 58 107 0 31 -33 85 -62 100 -16 9 -71 17 -128 21 l-100 6 0
-191z m199 147 c34 -12 61 -53 61 -93 0 -14 -13 -40 -29 -58 -28 -32 -33 -33
-115 -37 l-86 -3 0 101 0 101 69 0 c37 0 82 -5 100 -11z"/>
<path d="M5663 1565 c-36 -16 -53 -42 -53 -83 0 -44 27 -69 105 -98 39 -14 78
-33 88 -41 17 -16 23 -59 9 -79 -25 -38 -104 -44 -169 -13 -24 12 -47 19 -50
16 -19 -20 72 -66 132 -67 83 0 144 56 130 120 -9 39 -43 65 -112 85 -87 25
-123 74 -89 121 11 15 26 19 73 19 32 0 71 -4 87 -9 43 -13 29 16 -15 31 -45
16 -97 15 -136 -2z"/>
<path d="M6207 1570 c-46 -14 -98 -60 -118 -104 -72 -159 96 -320 257 -247 23
10 44 24 48 29 13 21 -14 22 -46 2 -47 -28 -125 -27 -168 3 -57 38 -75 71 -75
137 0 66 18 99 75 138 43 29 121 30 168 2 39 -24 42 -24 42 -5 0 34 -122 65
-183 45z"/>
<path d="M6583 1569 c-49 -14 -109 -77 -123 -128 -50 -187 181 -320 324 -185
72 68 76 185 8 258 -53 57 -132 77 -209 55z m148 -42 c77 -52 101 -140 58
-216 -31 -55 -65 -75 -134 -79 -47 -2 -67 1 -93 17 -38 24 -69 72 -78 119 -7
37 17 110 44 135 57 52 146 62 203 24z"/>
<path d="M6930 1390 c0 -162 2 -190 15 -190 13 0 15 24 15 160 0 88 3 160 8
160 4 0 59 -72 122 -160 72 -100 121 -160 133 -160 16 0 17 16 17 190 0 162
-2 190 -15 190 -13 0 -15 -24 -15 -160 0 -88 -3 -160 -7 -159 -5 0 -60 72
-123 159 -72 100 -122 160 -132 160 -17 0 -18 -16 -18 -190z"/>
<path d="M7370 1390 c0 -161 2 -190 15 -190 12 0 15 27 17 161 l3 161 116
-158 c64 -88 123 -160 132 -162 15 -3 17 15 17 187 0 162 -2 191 -15 191 -12
0 -15 -27 -17 -162 l-3 -163 -119 163 c-65 89 -125 162 -132 162 -11 0 -14
-36 -14 -190z"/>
<path d="M7800 1390 l0 -190 125 0 c104 0 125 2 125 15 0 12 -19 15 -110 15
l-110 0 0 75 0 75 95 0 c78 0 95 3 95 15 0 12 -17 15 -95 15 l-95 0 0 70 0 70
110 0 c91 0 110 3 110 15 0 13 -21 15 -125 15 l-125 0 0 -190z"/>
<path d="M8235 1561 c-103 -48 -143 -156 -95 -257 44 -90 150 -126 248 -84 29
12 52 26 52 30 0 17 -14 17 -43 -1 -46 -27 -124 -26 -168 4 -141 95 -81 297
87 297 31 0 61 -7 81 -19 29 -18 43 -18 43 -1 0 13 -98 50 -132 50 -18 0 -51
-9 -73 -19z"/>
<path d="M8480 1565 c0 -12 14 -15 65 -15 l65 0 0 -175 c0 -149 2 -175 15
-175 13 0 15 26 15 175 l0 175 60 0 c47 0 60 3 60 15 0 13 -22 15 -140 15
-118 0 -140 -2 -140 -15z"/>
<path d="M8937 1570 c-74 -22 -137 -105 -137 -180 0 -43 29 -107 61 -137 98
-90 254 -59 310 62 68 147 -76 302 -234 255z m143 -42 c57 -39 75 -72 75 -138
0 -44 -5 -66 -21 -87 -74 -99 -204 -99 -278 0 -16 21 -21 43 -21 87 0 66 18
99 75 138 24 16 47 22 85 22 38 0 61 -6 85 -22z"/>
<path d="M9280 1392 c0 -164 2 -192 15 -192 12 0 15 14 15 65 l0 65 69 0 69 0
42 -65 c23 -36 49 -65 57 -65 18 0 18 1 -32 74 -31 46 -37 60 -25 64 8 3 27
18 42 33 50 49 32 160 -30 189 -14 6 -69 14 -124 17 l-98 6 0 -191z m197 148
c65 -23 80 -111 27 -161 -22 -21 -37 -24 -110 -28 l-84 -3 0 101 0 101 69 0
c37 0 81 -5 98 -10z"/>
</g>
</svg>
